<?xml version="1.0" encoding="UTF-8"?>
<!-- Created with Inkscape (http://www.inkscape.org/) -->
<svg width="100mm" height="100mm" version="1.1" viewBox="0 0 100 100" xmlns="http://www.w3.org/2000/svg">
 <g fill="#4dd4ac">
  <text transform="matrix(.26458 0 0 .26458 -139.78 -10)" font-family="'Sansita Swashed'" font-size="192px" stroke-width="40" style="shape-inside:url(#rect2780);white-space:pre" xml:space="preserve"/>
  <text transform="matrix(.26458 0 0 .26458 -139.78 -10)" font-family="'Sansita Swashed'" font-size="192px" stroke-width="40" style="shape-inside:url(#rect2786);white-space:pre" xml:space="preserve"/>
  <circle cx="50" cy="50" r="50" stroke-width="10.197"/>
 </g>
 <circle cx="50" cy="50" r="40" fill="#343a40"/>
 <path d="m50 17.042c1.517 0 2.7467 1.2297 2.7467 2.7467v60.428c-7e-3 3.6554-5.4865 3.6554-5.4934 0v-60.428c1e-5 -1.517 1.2298-2.7467 2.7467-2.7467zm-10.987 10.987c1.517 1e-5 2.7467 1.2298 2.7467 2.7467v38.454c-8e-3 3.6547-5.4859 3.6547-5.4934 0v-38.454c0-1.517 1.2298-2.7467 2.7467-2.7467zm21.974 0c1.517 0 2.7467 1.2298 2.7467 2.7467v38.454c0 3.6623-5.4935 3.6623-5.4935 0v-38.454c-1e-5 -1.517 1.2298-2.7467 2.7467-2.7467zm-32.961 8.2402c1.517 0 2.7467 1.2298 2.7467 2.7467v21.974c-4e-3 3.6586-5.4898 3.6586-5.4935 0v-21.974c0-1.517 1.2298-2.7467 2.7467-2.7467zm43.948-1e-5c1.517 1e-5 2.7467 1.2298 2.7467 2.7467v21.974c-6e-3 3.6561-5.4873 3.6561-5.4934 0v-21.974c-1e-5 -1.517 1.2298-2.7467 2.7467-2.7467zm-54.934 5.4935c1.517 0 2.7467 1.2297 2.7467 2.7467v10.987c-0.0181 3.6441-5.4753 3.6441-5.4934 0v-10.987c1e-5 -1.5169 1.2297-2.7467 2.7466-2.7467zm65.921 0c1.517 0 2.7467 1.2297 2.7467 2.7467v10.987c-5e-3 3.6575-5.4886 3.6575-5.4934 0v-10.987c1e-5 -1.517 1.2298-2.7467 2.7467-2.7467z" fill="#4dd4ac" fill-rule="evenodd" stroke-width="5.4934"/>
 <path d="m65.803 48.455c-0.87871 0.073-1.7269 0.51337-2.2893 1.3002l-13.514 18.921-13.57-8.1385c-1.231-0.73754-2.8058-0.5445-3.822 0.4687l-19.185 19.185c7.5845 9.5357 24.393 15.095 36.578 15.1 15.428-2e-3 34.771-8.8755 41.403-22.805l-23.127-23.127c-0.68446-0.68326-1.5935-0.97782-2.4722-0.90485z" fill="#fff" stroke-width="6.2651"/>
 <path d="m40.615 43.614a9.3977 9.3977 0 1 0 0-18.795 9.3977 9.3977 0 0 0 0 18.795z" fill="#dc3545" stroke-width="6.2651"/>
 <path d="m50 0a50 50 0 0 0-50 50 50 50 0 0 0 50 50 50 50 0 0 0 50-50 50 50 0 0 0-50-50zm0 9.9999a40 40 0 0 1 40 40 40 40 0 0 1-40 40 40 40 0 0 1-40-40 40 40 0 0 1 40-40z" fill="#4dd4ac" stroke-width="10.197"/>
</svg>
