<?xml version="1.0" encoding="UTF-8"?>
<!-- Created with Inkscape (http://www.inkscape.org/) -->
<svg width="68.279mm" height="48.463mm" version="1.1" viewBox="0 0 68.279 48.463" xmlns="http://www.w3.org/2000/svg">
 <g transform="translate(-15.934 -28.484)" fill="#4dd4ac">
  <g transform="scale(.50579 1.9771)" stroke-dasharray="4.12623, 4.12623" stroke-width="4.1262" aria-label="WhisperPix">
   <g fill="#6c757d">
    <path d="m34.408 34.063q-0.33402 0-0.66804-0.07708-0.30833-0.05139-0.59096-0.12847 0.12847-1.3618 0.20555-2.775 0.07708-1.4132 0.12847-2.7493 0.05139-1.3618 0.05139-2.4923 0-2.1583-0.15416-3.5972-0.15416-1.4646-0.4368-2.3638t-0.66804-1.4132q-0.35972-0.51388-0.77082-0.8479 0.38541-0.51388 1.1562-0.89929 0.79651-0.4111 1.6187-0.4111 1.0278 0 1.7472 0.69374 0.74513 0.66804 1.1048 2.1326 0.38541 1.4646 0.38541 3.777 0 1.0791-0.07708 2.4666-0.07708 1.3618-0.23125 2.8777-0.12847 1.5159-0.33402 3.0319h0.07708q1.1819-0.71943 2.184-1.8243 1.0021-1.1305 1.7472-2.4666t1.1562-2.775q0.4111-1.4646 0.4111-2.852 0-1.1048-0.25694-2.0041-0.25694-0.92498-0.82221-1.6444 0.23125-0.59096 0.79651-1.0021 0.59096-0.4368 1.2847-0.4368 1.0535 0 1.6958 0.66804 0.66804 0.66804 0.97637 2.1583 0.33402 1.4646 0.33402 3.8541 0 1.1048-0.12847 2.5951-0.10278 1.4646-0.28263 2.9805-0.15416 1.5159-0.35972 2.775h0.07708q0.92498-0.4368 1.7729-1.2847t1.5673-2.0041q0.71943-1.1819 1.2333-2.4923t0.79651-2.6722q0.30833-1.3618 0.30833-2.6208 0-1.1819-0.28263-2.1583-0.28263-1.0021-0.89929-1.6701 0.25694-0.74513 0.95068-1.1819 0.71943-0.4368 1.4903-0.4368 0.59096 0 1.0791 0.33402 0.51388 0.33402 0.79651 1.0278 0.30833 0.66804 0.30833 1.7215 0 1.4389-0.4111 3.1861-0.38541 1.7472-1.1305 3.5715-0.74513 1.7986-1.7729 3.4687t-2.3125 3.0062q-1.259 1.3361-2.7236 2.1326-1.4646 0.77082-3.0576 0.77082-0.30833 0-0.61666-0.05139-0.28263-0.02569-0.59096-0.10278 0.12847-0.77082 0.20555-1.7472 0.07708-1.0021 0.12847-2.0041 0.07708-1.0021 0.12847-1.7986h-0.10278q-1.0535 1.7215-2.4152 3.0319-1.3361 1.2847-2.852 2.0041-1.4903 0.71943-2.9548 0.71943z"/>
    <path d="m65.061 34.294q-1.0278 0-1.6958-0.53957-0.64235-0.56527-0.64235-1.7472 0-0.56527 0.15416-1.4132 0.15416-0.8736 0.38541-1.85t0.4368-1.9527q0.23125-0.97637 0.38541-1.7986 0.17986-0.82221 0.17986-1.3618 0-0.66804-0.30833-1.0791t-0.95068-0.4111q-0.8479 0-1.4132 0.66804-0.56527 0.64235-0.92498 1.6187-0.35972 0.95068-0.53957 1.8757l-1.4646 7.477-4.034 0.4111 2.3382-11.845 3.4687-0.02569q0.77082-1.0791 1.8757-1.6187 1.1305-0.53957 2.4666-0.53957 1.593 0 2.4923 0.74513 0.92498 0.74513 0.92498 2.3125 0 0.66804-0.15416 1.5673-0.15416 0.8736-0.38541 1.85t-0.46249 1.9014q-0.20555 0.92498-0.35972 1.7215-0.15416 0.77082-0.15416 1.259t0.20555 0.82221q0.23125 0.30833 0.79651 0.38541-0.23125 0.79651-1.0021 1.1819-0.74513 0.38541-1.6187 0.38541zm-4.7277-11.228-3.443-0.4111q0.23125-1.0791 0.4111-2.2611 0.20555-1.1819 0.33402-2.3125 0.15416-1.1562 0.20555-2.0555 0-0.30833-0.02569-0.56527 0-0.28263-0.02569-0.53957 0.48819-0.28263 1.0021-0.38541 0.51388-0.12847 1.0021-0.12847 0.8736 0 1.4903 0.46249 0.64235 0.46249 0.61666 1.593 0 0.35972-0.10278 0.95068-0.07708 0.56527-0.23125 1.2847-0.15416 0.69374-0.35972 1.4646-0.20555 0.74513-0.4368 1.4903-0.20555 0.74513-0.4368 1.4132z"/>
    <path d="m72.126 34.294q-1.0535 0-1.6958-0.56527-0.64235-0.56527-0.64235-1.6444 0-0.38541 0.07708-1.0021t0.17986-1.2847q0.12847-0.69374 0.25694-1.3104t0.20555-1.0021l1.3618-6.8089 4.034-0.4111-2.0298 10.252q-0.02569 0.20555-0.07708 0.53957-0.05139 0.30833-0.05139 0.53957 0 0.4368 0.23125 0.77082 0.25694 0.30833 0.77082 0.35972-0.23125 0.79651-1.0021 1.1819t-1.6187 0.38541zm2.4409-15.776q-1.0021 0-1.6701-0.46249-0.64235-0.46249-0.64235-1.3361 0-0.92498 0.69374-1.3875 0.69374-0.48819 1.6958-0.48819t1.6444 0.46249 0.64235 1.3618q0 0.92498-0.69374 1.3875-0.66804 0.46249-1.6701 0.46249z"/>
    <path d="m81.222 34.345q-0.92498 0-1.8243-0.15416t-1.6444-0.48819q-0.71943-0.33402-1.1562-0.8736t-0.4368-1.2847q0.02569-0.74513 0.38541-1.1819 0.35972-0.46249 0.95068-0.69374t1.2333-0.23125q0.4111 0 0.82221 0.10278 0.4111 0.07708 0.69374 0.30833-0.12847 0.4111-0.20555 0.77082-0.07708 0.35972-0.07708 0.82221 0.02569 0.64235 0.48819 1.0535 0.46249 0.4111 1.2333 0.4111 0.8479 0 1.3875-0.4368 0.56527-0.4368 0.56527-1.1048t-0.46249-1.2076q-0.46249-0.56527-1.1819-1.0535t-1.4903-1.0021q-0.71943-0.51388-1.3618-1.0791-0.61666-0.56527-1.0278-1.259-0.38541-0.71943-0.38541-1.6444 0.02569-0.97637 0.56527-1.7215 0.53957-0.77082 1.4132-1.259 0.89929-0.48819 1.9784-0.71943 1.0791-0.25694 2.184-0.25694 1.0535 0 2.0812 0.25694t1.6958 0.8479 0.64235 1.593q0 1.0535-0.69374 1.593-0.66804 0.53957-1.6187 0.53957-0.38541 0-0.82221-0.07708-0.4368-0.10278-0.77082-0.33402 0.15416-0.30833 0.23125-0.66804 0.07708-0.35972 0.10278-0.74513 0-0.74513-0.4111-1.1819t-1.2076-0.4368q-0.69374 0-1.2076 0.38541-0.48819 0.38541-0.51388 1.1048 0 0.56527 0.35972 1.0791 0.35972 0.48819 0.95068 0.95068 0.61666 0.46249 1.2847 0.89929 0.8479 0.53957 1.593 1.1305 0.77082 0.56527 1.2333 1.2847 0.48819 0.71943 0.46249 1.7472 0 1.259-0.79651 2.2097-0.77082 0.92498-2.1326 1.4389-1.3618 0.53957-3.109 0.56527z"/>
    <path d="m94.48 34.268q-0.61666 0-1.0535-0.10278-0.4111-0.10278-1.0791-0.30833l-3.5201-0.30833 2.4666-12.873 3.3916-0.4111-0.33402 2.1326q0.66804-0.97637 1.6701-1.6187 1.0278-0.64235 2.3638-0.64235 1.3875 0 2.2354 0.64235 0.8479 0.61666 1.2333 1.7215 0.4111 1.1048 0.4111 2.6208 0 1.7986-0.51388 3.4687-0.48818 1.6444-1.4902 2.9291-0.97637 1.259-2.4409 2.0041-1.4389 0.74513-3.3402 0.74513zm-4.034 4.6506q-0.8736 0-1.4646-0.48819t-0.59096-1.6701q0-0.25694 0.05139-0.69374t0.12847-0.97637 0.17986-1.1305q0.10278-0.59096 0.23125-1.1305l3.8798 0.30833q-0.17986 0.95068-0.33402 2.0298-0.15416 1.1048-0.15416 2.0041 0 0.30833 0.02569 0.59096 0.02569 0.30833 0.10278 0.56527-0.4368 0.25694-0.97637 0.4111-0.53957 0.17986-1.0791 0.17986zm4.368-6.1666q0.77082 0 1.3361-0.53957 0.59096-0.56527 1.0021-1.4903 0.4368-0.92498 0.69374-2.0555t0.38541-2.3125q0.12847-1.2076 0.12847-2.2611 0-0.8736-0.28263-1.4646-0.25694-0.59096-1.0535-0.59096t-1.3618 0.53957q-0.53957 0.51388-0.8736 1.3104t-0.48819 1.6187l-1.1819 6.6034q0.35972 0.30833 0.82221 0.48819 0.46249 0.15416 0.8736 0.15416z"/>
    <path d="m108.51 34.294q-1.516 0-2.6722-0.56527t-1.7986-1.7215q-0.61666-1.1562-0.61666-2.9548 0-1.6444 0.4625-3.2118 0.46249-1.593 1.4132-2.8777 0.97637-1.2847 2.4666-2.0298 1.4902-0.77082 3.5458-0.77082 1.0535 0 1.9528 0.28263 0.89929 0.25694 1.4389 0.92498t0.53957 1.8757q0 1.3618-0.79651 2.3382t-2.2611 1.5159q-1.4389 0.53957-3.443 0.59096-0.30833 0.02569-0.69374 0.02569-0.35971-0.02569-0.64235-0.02569-0.0257 0.33402-0.0514 0.69374-0.0257 0.33402-0.0257 0.61666 0 1.2333 0.48819 1.927 0.48818 0.66804 1.7472 0.66804 1.0534 0 1.9784-0.46249 0.95068-0.48819 1.4389-1.3618 0.35972 0.15416 0.48819 0.46249 0.15416 0.30833 0.15416 0.66804 0 0.95068-0.66804 1.7215-0.66805 0.77082-1.8243 1.2076-1.1562 0.46249-2.6208 0.46249zm-0.95068-7.7853q0.89929 0 1.6701-0.23125 0.77082-0.25694 1.3618-0.69374 0.61666-0.4368 0.95068-1.1048t0.33402-1.4903q-0.0257-0.69374-0.30833-1.0535-0.25694-0.38541-0.8479-0.38541-0.56527 0-1.0792 0.38541-0.51388 0.35972-0.92498 1.0278-0.38541 0.66804-0.69374 1.5673-0.28263 0.89929-0.46249 1.9784z"/>
    <path d="m115.55 34.191 2.5951-13.515 3.3402-0.4111-0.35972 2.4152q0.53958-1.1819 1.516-1.85t2.2868-0.66804q1.3875 0 2.0812 0.77082 0.69374 0.74513 0.69374 2.0041 0 1.4389-0.84791 2.4409-0.8222 0.97637-2.1326 0.97637-0.38541 0-0.77082-0.10278t-0.59096-0.35972q0.38541-0.51388 0.64235-1.2847t0.25694-1.4132q0-0.46249-0.17986-0.74513-0.17986-0.30833-0.66804-0.30833-0.48819 0-0.89929 0.35972-0.38541 0.33402-0.69374 0.95068-0.28263 0.59096-0.51388 1.3618-0.20555 0.77082-0.35972 1.6187l-1.2333 7.3485z"/>
   </g>
   <path d="m138.37 27.819q-0.33402 0-0.74512 0-0.41111-0.02569-0.71943-0.07708l0.33402-1.5416h0.79651q1.5673 0 2.5694-0.66804 1.0278-0.69374 1.516-1.7472 0.48818-1.0535 0.48818-2.184 0-1.3618-0.64235-2.2097-0.61665-0.8479-1.7215-1.2333-1.0792-0.4111-2.4409-0.4111-1.0792 0-2.184 0.30833-1.1048 0.30833-2.0555 0.95068-0.92498 0.61666-1.5159 1.6187-0.56527 0.97637-0.56527 2.3125 0 0.69374 0.15416 1.3104 0.15417 0.59096 0.53958 1.3875-0.33402 0.30833-0.79652 0.46249-0.43679 0.15416-0.8479 0.15416-0.89929 0-1.5673-0.4368-0.64235-0.4368-1.0021-1.1562-0.33402-0.74513-0.33402-1.6444 0-1.593 0.82221-2.852 0.8479-1.259 2.2868-2.1326 1.4646-0.89929 3.3145-1.3875 1.8757-0.48819 3.9569-0.48819 1.85 0 3.3916 0.35972 1.5673 0.33402 2.7236 1.0278 1.1819 0.66804 1.8243 1.6958t0.64235 2.3895q0 1.4132-0.66804 2.5694-0.66804 1.1305-1.8243 1.9527-1.1562 0.79651-2.6465 1.2333-1.4646 0.4368-3.0833 0.4368zm-4.9846 6.4235q-0.66805 0-1.2847-0.25694-0.59097-0.23125-0.74513-0.69374 0.33402-0.20555 0.56527-0.53957 0.23124-0.33402 0.38541-0.8736 0.15416-0.53957 0.28263-1.2847l1.6701-8.4019q0.20555-1.0535 0.56527-1.7729 0.38541-0.71943 1.0278-1.0791 0.66804-0.38541 1.7215-0.38541 0.8736 0 1.4646 0.33402 0.61665 0.33402 0.69374 0.8479-0.64235 0.28263-0.8736 0.8736-0.20555 0.59096-0.38541 1.4903l-1.7215 8.5304q-0.20555 1.0791-0.61666 1.7986-0.38541 0.69374-1.0534 1.0535t-1.6958 0.35972z"/>
   <path d="m149.34 34.294q-1.0534 0-1.6958-0.56527t-0.64235-1.6444q0-0.38541 0.0771-1.0021t0.17986-1.2847q0.12847-0.69374 0.25694-1.3104t0.20555-1.0021l1.3618-6.8089 4.034-0.4111-2.0298 10.252q-0.0257 0.20555-0.0771 0.53957-0.0514 0.30833-0.0514 0.53957 0 0.4368 0.23125 0.77082 0.25694 0.30833 0.77082 0.35972-0.23125 0.79651-1.0021 1.1819t-1.6187 0.38541zm2.4409-15.776q-1.0021 0-1.6701-0.46249-0.64235-0.46249-0.64235-1.3361 0-0.92498 0.69374-1.3875 0.69374-0.48819 1.6958-0.48819 1.0021 0 1.6444 0.46249t0.64235 1.3618q0 0.92498-0.69374 1.3875-0.66804 0.46249-1.6701 0.46249z"/>
   <path d="m155.04 34.294q-0.97637 0-1.4389-0.51388-0.48819-0.53957-0.48819-1.4646 0-1.0278 0.51388-1.85 0.53958-0.8479 1.3618-1.5159 0.84791-0.69374 1.7729-1.2333l1.1048-0.53957-1.3618-3.5715q-0.25694-0.66804-0.66804-1.1305-0.38541-0.48819-1.1048-0.56527 0.20556-0.8736 0.92499-1.3104t1.6444-0.4368q1.1819 0 1.7986 0.71943 0.64235 0.69374 1.1048 1.85l1.1305 2.8006q0.82221-0.59096 1.259-1.3361 0.46249-0.74513 0.46249-1.6444 0-0.48819-0.10278-0.92498-0.10277-0.46249-0.35971-0.8736 0.38541-0.28263 0.89929-0.4368t1.0534-0.15416q0.97637 0 1.4646 0.51388t0.48819 1.4389q0 0.95068-0.4625 1.7215-0.43679 0.74513-1.2076 1.3875-0.74513 0.64235-1.6958 1.1819l-1.2333 0.64235 1.4132 3.8027q0.25694 0.66804 0.66804 1.1562 0.41111 0.46249 1.1048 0.53957-0.20556 0.8479-0.92499 1.2847-0.71943 0.46249-1.6701 0.46249-0.79651 0-1.3361-0.33402-0.53957-0.33402-0.89929-0.89929-0.35971-0.59096-0.66804-1.3361l-1.1305-3.0062q-0.8479 0.56527-1.3875 1.4132-0.51388 0.82221-0.51388 1.7729 0 0.46249 0.10277 0.92498 0.12847 0.46249 0.35972 0.8736-0.79651 0.59096-1.9784 0.59096z"/>
  </g>
  <text transform="scale(.26458)" font-family="'Sansita Swashed'" font-size="192px" stroke-width="40" style="shape-inside:url(#rect2780);white-space:pre" xml:space="preserve"/>
  <text transform="scale(.26458)" font-family="'Sansita Swashed'" font-size="192px" stroke-width="40" style="shape-inside:url(#rect2786);white-space:pre" xml:space="preserve"/>
 </g>
</svg>
